<svg xmlns="http://www.w3.org/2000/svg" width="628" height="624" viewBox="0 0 628 624" fill="none"><path opacity="0.2" d="M237.001 311.974C237.001 281.257 255.12 254.762 281.237 242.612V0.103516C123.236 16.2685 0 149.741 0 312.008C0 474.276 123.27 607.748 281.237 623.913V381.405C255.12 369.221 237.001 342.76 237.001 312.043V311.974Z" fill="#46ECE7"></path><path opacity="0.2" d="M225.95 77.5656C130.958 113.053 63.3167 204.62 63.3167 311.975C63.3167 419.329 130.958 510.897 225.95 546.384V77.5312V77.5656Z" fill="#46ECE7"></path><path opacity="0.2" d="M401.075 77.5645V546.417C496.068 510.93 563.708 419.363 563.708 312.008C563.708 204.653 496.068 113.086 401.075 77.5987V77.5645Z" fill="#46ECE7"></path><path opacity="0.5" d="M345.789 126.781V242.613C371.905 254.797 390.025 281.258 390.025 311.975C390.025 342.692 371.905 369.187 345.789 381.337V497.168C434.227 481.861 501.524 404.812 501.524 311.975C501.524 219.138 434.227 142.088 345.789 126.781Z" fill="#46ECE7"></path><path opacity="0.5" d="M237.001 311.975C237.001 281.258 255.12 254.762 281.236 242.613V126.781C192.799 142.088 125.501 219.138 125.501 311.975C125.501 404.812 192.799 481.861 281.236 497.168V381.337C255.12 369.153 237.001 342.692 237.001 311.975Z" fill="#46ECE7"></path><path opacity="0.2" d="M345.789 0.0686033V242.577C371.905 254.761 390.025 281.222 390.025 311.939C390.025 342.656 371.905 369.152 345.789 381.301V623.81C503.789 607.645 627.026 474.172 627.026 311.905C627.026 149.638 503.755 16.165 345.789 0V0.0686033Z" fill="#46ECE7"></path><path d="M313.495 183.477C242.526 183.477 184.974 241.032 184.974 312.007C184.974 382.982 242.526 440.537 313.495 440.537C384.465 440.537 442.017 382.982 442.017 312.007C442.017 241.032 384.465 183.477 313.495 183.477ZM313.495 388.507C271.25 388.507 236.966 354.256 236.966 311.973C236.966 269.69 271.215 235.438 313.495 235.438C355.775 235.438 390.025 269.69 390.025 311.973C390.025 354.256 355.775 388.507 313.495 388.507Z" fill="#46ECE7"></path></svg>