<svg width="442" height="85" viewBox="0 0 442 85" fill="none" xmlns="http://www.w3.org/2000/svg">
<path opacity="0.2" d="M32.3631 42.4982C32.3631 38.3119 34.8354 34.7016 38.4031 33.0461V0C16.8292 2.19975 0 20.3873 0 42.4982C0 64.6091 16.8292 82.7968 38.4031 84.9965V51.9503C34.8354 50.2903 32.3631 46.6846 32.3631 42.4982Z" fill="#46ECE7"/>
<path opacity="0.2" d="M30.8545 10.5587C17.8839 15.3937 8.64893 27.871 8.64893 42.5028C8.64893 57.1345 17.8839 69.6073 30.8545 74.4468V10.5587Z" fill="#46ECE7"/>
<path opacity="0.2" d="M54.7686 10.5588V74.4422C67.7393 69.6074 76.9742 57.13 76.9742 42.4983C76.9742 27.8665 67.7393 15.3937 54.7686 10.5543V10.5588Z" fill="#46ECE7"/>
<path opacity="0.5" d="M47.2155 17.267V33.0462C50.783 34.7062 53.2554 38.312 53.2554 42.4983C53.2554 46.6847 50.783 50.2904 47.2155 51.9504V67.7297C59.2908 65.6433 68.4802 55.1435 68.4802 42.4937C68.4802 29.844 59.2908 19.3443 47.2155 17.2578V17.267Z" fill="#46ECE7"/>
<path opacity="0.5" d="M32.3631 42.4982C32.3631 38.3118 34.8354 34.7015 38.403 33.0461V17.2668C26.3276 19.3532 17.1382 29.853 17.1382 42.5028C17.1382 55.1524 26.323 65.6522 38.403 67.7387V51.9593C34.8354 50.2993 32.3631 46.6936 32.3631 42.5072V42.4982Z" fill="#46ECE7"/>
<path opacity="0.2" d="M47.2155 0V33.0461C50.783 34.7062 53.2554 38.3119 53.2554 42.4982C53.2554 46.6846 50.783 50.2903 47.2155 51.9503V84.9965C68.7893 82.7968 85.6184 64.6091 85.6184 42.4982C85.6184 20.3873 68.7893 2.19975 47.2155 0Z" fill="#46ECE7"/>
<path d="M42.8111 24.9863C33.1218 24.9863 25.2639 32.8283 25.2639 42.4982C25.2639 52.168 33.1218 60.01 42.8111 60.01C52.5006 60.01 60.3585 52.168 60.3585 42.4982C60.3585 32.8283 52.5006 24.9863 42.8111 24.9863ZM42.8111 52.9255C37.0394 52.9255 32.3628 48.2583 32.3628 42.4982C32.3628 36.738 37.0394 32.0709 42.8111 32.0709C48.583 32.0709 53.2596 36.738 53.2596 42.4982C53.2596 48.2583 48.583 52.9255 42.8111 52.9255Z" fill="#46ECE7"/>
<path d="M102.74 24.6193H130.851C132.187 24.6193 133.408 24.9544 134.518 25.618C135.629 26.2818 136.526 27.1774 137.21 28.3049C137.895 29.4325 138.237 30.6631 138.237 31.9905V39.0589C138.237 39.5034 138.205 39.9222 138.134 40.3153C138.063 40.7084 137.959 41.095 137.824 41.4686C138.373 42.1838 138.818 42.9635 139.16 43.8012C139.502 44.6386 139.67 45.4828 139.67 46.3333V54.1169C139.67 55.4506 139.328 56.6748 138.644 57.8023C137.959 58.93 137.055 59.8256 135.926 60.4892C134.796 61.153 133.563 61.4879 132.233 61.4879H102.734V24.6258L102.74 24.6193ZM110.436 39.0072H130.444C130.547 39.0072 130.625 38.9814 130.676 38.9299C130.728 38.8785 130.754 38.8203 130.754 38.7496V32.3513C130.754 32.2805 130.728 32.216 130.676 32.1451C130.625 32.0743 130.547 32.0421 130.444 32.0421H110.436C110.365 32.0421 110.3 32.0743 110.229 32.1451C110.158 32.216 110.126 32.2805 110.126 32.3513V38.7496C110.126 38.8203 110.158 38.8785 110.229 38.9299C110.3 38.9814 110.365 39.0072 110.436 39.0072ZM110.436 54.0587H131.878C131.948 54.0587 132.013 54.0266 132.084 53.9558C132.155 53.8849 132.187 53.8204 132.187 53.7496V46.7329C132.187 46.6619 132.155 46.5975 132.084 46.5267C132.013 46.4557 131.948 46.4236 131.878 46.4236H110.436C110.365 46.4236 110.3 46.4557 110.229 46.5267C110.158 46.5975 110.126 46.6619 110.126 46.7329V53.7496C110.126 53.8204 110.158 53.8849 110.229 53.9558C110.3 54.0266 110.365 54.0587 110.436 54.0587Z" fill="white"/>
<path d="M149.323 31.9905C149.323 30.6568 149.659 29.4325 150.324 28.3049C150.989 27.1774 151.886 26.2818 153.016 25.618C154.145 24.9544 155.379 24.6193 156.709 24.6193H178.822C180.158 24.6193 181.386 24.9544 182.515 25.618C183.645 26.2818 184.547 27.1774 185.233 28.3049C185.917 29.4325 186.258 30.6631 186.258 31.9905V61.4816H178.77V49.3488H156.709V61.4816H149.323V31.9905ZM178.77 41.9713V32.3449C178.77 32.274 178.738 32.2095 178.666 32.1387C178.595 32.0678 178.53 32.0356 178.46 32.0356H157.019C156.947 32.0356 156.884 32.0678 156.811 32.1387C156.741 32.2095 156.709 32.274 156.709 32.3449V41.9713H178.77Z" fill="white"/>
<path d="M196.879 61.4816V24.6193H204.73L226.327 50.3217V24.6193H233.817V61.4816H225.966L204.266 35.6761V61.4816H196.879Z" fill="white"/>
<path d="M244.386 61.4816V24.6193H251.822V39.3165H259.777L272.09 24.6193H279.991V26.9775L266.447 43.0536L279.991 59.1297V61.4879H272.09L259.777 46.7908H251.822V61.4879H244.386V61.4816Z" fill="white"/>
<path d="M292.769 60.4829C291.64 59.8191 290.742 58.9235 290.077 57.796C289.412 56.6683 289.076 55.4378 289.076 54.1104V24.6193H296.462V53.7496C296.462 53.8204 296.494 53.8849 296.565 53.9558C296.637 54.0266 296.7 54.0587 296.773 54.0587H318.213C318.284 54.0587 318.349 54.0266 318.419 53.9558C318.492 53.8849 318.523 53.8204 318.523 53.7496V24.6193H326.012V54.1104C326.012 55.4441 325.67 56.6683 324.986 57.796C324.303 58.9235 323.403 59.8191 322.294 60.4829C321.183 61.1465 319.957 61.4816 318.627 61.4816H296.462C295.125 61.4816 293.899 61.1465 292.769 60.4829Z" fill="white"/>
<path d="M337.034 61.4816V24.6193H344.368V61.4816H337.034Z" fill="white"/>
<path d="M370.072 61.4816V32.0421H355.299V24.6193H392.235V32.0421H377.509V61.4816H370.072Z" fill="white"/>
<path d="M417.363 61.4816V47.7121L400.279 24.6193H409.053L421.056 39.671L433.007 24.6193H441.886L424.802 47.7637V61.4879H417.363V61.4816Z" fill="white"/>
</svg>
