<svg width="418" height="159" viewBox="0 0 418 159" fill="none" xmlns="http://www.w3.org/2000/svg">
<g clip-path="url(#clip0_2_892)">
<rect width="418" height="159" fill="#1B1D3D"/>
<g clip-path="url(#clip1_2_892)">
<path d="M208.401 217.802C177.838 217.802 148.186 211.814 120.276 200.01C93.3144 188.608 69.1044 172.284 48.3114 151.491C27.5185 130.698 11.1941 106.488 -0.207718 79.526C-12.0123 51.6155 -18 21.964 -18 -8.599C-18 -39.162 -12.0123 -68.8135 -0.207718 -96.7241C11.1941 -123.682 27.5185 -147.896 48.3114 -168.689C69.1044 -189.482 93.3144 -205.806 120.276 -217.208C148.19 -229.012 177.838 -235 208.401 -235C238.964 -235 268.616 -229.012 296.526 -217.208C323.484 -205.806 347.698 -189.482 368.491 -168.689C389.284 -147.896 405.608 -123.686 417.01 -96.7241C428.814 -68.8101 434.802 -39.162 434.802 -8.599C434.802 21.964 428.814 51.6155 417.01 79.526C405.608 106.488 389.284 130.698 368.491 151.491C347.698 172.284 323.488 188.608 296.526 200.01C268.612 211.814 238.964 217.802 208.401 217.802ZM208.401 -232.597C84.8894 -232.597 -15.5967 -132.111 -15.5967 -8.599C-15.5967 114.913 84.8894 215.399 208.401 215.399C331.913 215.399 432.399 114.913 432.399 -8.599C432.399 -132.111 331.913 -232.597 208.401 -232.597Z" fill="url(#paint0_linear_2_892)"/>
<path d="M208.401 211.186C178.729 211.186 149.948 205.376 122.85 193.913C96.677 182.842 73.1735 166.996 52.9882 146.81C32.8029 126.625 16.9565 103.121 5.88583 76.9485C-5.57402 49.8504 -11.3876 21.0693 -11.3876 -8.60268C-11.3876 -38.2747 -5.57743 -67.0557 5.88583 -94.1538C16.9565 -120.327 32.8029 -143.83 52.9882 -164.015C73.1735 -184.201 96.677 -200.047 122.85 -211.118C149.948 -222.578 178.729 -228.391 208.401 -228.391C238.073 -228.391 266.854 -222.581 293.952 -211.118C320.125 -200.047 343.629 -184.201 363.814 -164.015C383.999 -143.83 399.846 -120.327 410.916 -94.1538C422.376 -67.0557 428.19 -38.2747 428.19 -8.60268C428.19 21.0693 422.38 49.8504 410.916 76.9485C399.846 103.121 383.999 126.625 363.814 146.81C343.629 166.996 320.125 182.842 293.952 193.913C266.854 205.373 238.073 211.186 208.401 211.186ZM208.401 -225.985C88.5353 -225.985 -8.98432 -128.465 -8.98432 -8.59926C-8.98432 111.267 88.5353 208.786 208.401 208.786C328.267 208.786 425.786 111.267 425.786 -8.59926C425.786 -128.465 328.267 -225.985 208.401 -225.985Z" fill="url(#paint1_linear_2_892)"/>
<path d="M208.401 204.574C179.623 204.574 151.706 198.938 125.424 187.823C100.039 177.087 77.2427 161.715 57.665 142.137C38.0873 122.559 22.7188 99.7625 11.9792 74.3781C0.864192 48.0959 -4.77185 20.1786 -4.77185 -8.59904C-4.77185 -37.3767 0.864192 -65.294 11.9792 -91.5762C22.7154 -116.961 38.0873 -139.757 57.665 -159.335C77.2427 -178.913 100.039 -194.281 125.424 -205.021C151.706 -216.136 179.623 -221.772 208.401 -221.772C237.179 -221.772 265.096 -216.136 291.378 -205.021C316.763 -194.285 339.559 -178.913 359.137 -159.335C378.715 -139.757 394.083 -116.961 404.823 -91.5762C415.938 -65.294 421.574 -37.3767 421.574 -8.59904C421.574 20.1786 415.938 48.0959 404.823 74.3781C394.087 99.7625 378.715 122.559 359.137 142.137C339.559 161.715 316.763 177.083 291.378 187.823C265.096 198.938 237.179 204.574 208.401 204.574ZM208.401 -219.369C92.1811 -219.369 -2.36859 -124.819 -2.36859 -8.59904C-2.36859 107.621 92.1845 202.171 208.401 202.171C324.618 202.171 419.171 107.621 419.171 -8.59904C419.171 -124.819 324.621 -219.369 208.401 -219.369Z" fill="url(#paint2_linear_2_892)"/>
<path d="M208.401 197.961C180.518 197.961 153.464 192.499 127.998 181.729C103.402 171.324 81.3118 156.434 62.3418 137.464C43.3718 118.494 28.4778 96.4031 18.0762 71.8072C7.30594 46.3409 1.84399 19.2906 1.84399 -8.59601C1.84399 -36.4827 7.30594 -63.5329 18.0762 -88.9993C28.4812 -113.595 43.3718 -135.685 62.3418 -154.655C81.3118 -173.625 103.402 -188.519 127.998 -198.921C153.464 -209.691 180.514 -215.153 208.401 -215.153C236.288 -215.153 263.338 -209.691 288.804 -198.921C313.4 -188.516 335.49 -173.625 354.46 -154.655C373.43 -135.685 388.324 -113.595 398.726 -88.9993C409.496 -63.5329 414.958 -36.4827 414.958 -8.59601C414.958 19.2906 409.496 46.3409 398.726 71.8072C388.321 96.4031 373.43 118.494 354.46 137.464C335.49 156.434 313.4 171.328 288.804 181.729C263.338 192.499 236.288 197.961 208.401 197.961ZM208.401 -212.757C95.827 -212.757 4.24384 -121.174 4.24384 -8.59943C4.24384 103.975 95.827 195.558 208.401 195.558C320.975 195.558 412.558 103.975 412.558 -8.59943C412.558 -121.174 320.975 -212.757 208.401 -212.757Z" fill="url(#paint3_linear_2_892)"/>
<path d="M208.401 191.346C181.409 191.346 155.226 186.058 130.575 175.632C106.764 165.562 85.3844 151.146 67.022 132.783C48.6596 114.421 34.2435 93.0375 24.173 69.2303C13.7476 44.5799 8.45972 18.3933 8.45972 -8.59898C8.45972 -35.5912 13.7476 -61.7744 24.173 -86.4249C34.2435 -110.236 48.6596 -131.616 67.022 -149.978C85.3844 -168.34 106.768 -182.756 130.575 -192.827C155.226 -203.253 181.412 -208.54 208.401 -208.54C235.39 -208.54 261.576 -203.253 286.23 -192.827C310.041 -182.756 331.421 -168.34 349.783 -149.978C368.146 -131.616 382.562 -110.232 392.632 -86.4249C403.058 -61.7744 408.346 -35.5878 408.346 -8.59898C408.346 18.3898 403.058 44.5764 392.632 69.2303C382.562 93.041 368.146 114.421 349.783 132.783C331.421 151.146 310.038 165.562 286.23 175.632C261.58 186.058 235.393 191.346 208.401 191.346ZM208.401 -206.141C99.4762 -206.141 10.8596 -117.524 10.8596 -8.59898C10.8596 100.326 99.4762 188.942 208.401 188.942C317.326 188.942 405.942 100.326 405.942 -8.59898C405.942 -117.524 317.326 -206.141 208.401 -206.141Z" fill="url(#paint4_linear_2_892)"/>
<path d="M208.401 184.73C182.303 184.73 156.984 179.62 133.149 169.535C110.127 159.799 89.4534 145.858 71.6953 128.103C53.9405 110.348 40.0023 89.6716 30.263 66.6495C20.1823 42.8149 15.0686 17.495 15.0686 -8.60281C15.0686 -34.7007 20.1823 -60.0202 30.263 -83.8547C39.9989 -106.877 53.9405 -127.554 71.6953 -145.308C89.45 -163.063 110.127 -177.001 133.149 -186.741C156.984 -196.821 182.303 -201.935 208.401 -201.935C234.499 -201.935 259.818 -196.825 283.653 -186.741C306.675 -177.005 327.352 -163.063 345.107 -145.308C362.861 -127.554 376.799 -106.877 386.539 -83.8547C396.62 -60.0202 401.733 -34.7007 401.733 -8.60281C401.733 17.495 396.623 42.8149 386.539 66.6495C376.803 89.6716 362.861 110.345 345.107 128.103C327.352 145.858 306.675 159.796 283.653 169.535C259.818 179.616 234.499 184.73 208.401 184.73ZM208.401 -199.528C103.122 -199.528 17.4718 -113.878 17.4718 -8.5994C17.4718 96.6796 103.122 182.33 208.401 182.33C313.68 182.33 399.33 96.6796 399.33 -8.5994C399.33 -113.878 313.68 -199.528 208.401 -199.528Z" fill="url(#paint5_linear_2_892)"/>
<path d="M208.401 178.118C183.194 178.118 158.742 173.181 135.723 163.445C113.489 154.041 93.5193 140.58 76.3722 123.43C59.2251 106.283 45.7614 86.3159 36.3566 64.079C26.6207 41.0603 21.6844 16.6079 21.6844 -8.59897C21.6844 -33.8058 26.6207 -58.2583 36.3566 -81.277C45.7614 -103.511 59.2251 -123.481 76.3722 -140.628C93.5193 -157.775 113.486 -171.239 135.723 -180.643C158.742 -190.379 183.194 -195.316 208.401 -195.316C233.608 -195.316 258.06 -190.379 281.079 -180.643C303.313 -171.239 323.283 -157.778 340.43 -140.628C357.577 -123.481 371.041 -103.511 380.445 -81.277C390.181 -58.2583 395.118 -33.8058 395.118 -8.59897C395.118 16.6079 390.181 41.0603 380.445 64.079C371.041 86.3126 357.577 106.283 340.43 123.43C323.283 140.577 303.316 154.041 281.079 163.445C258.057 173.181 233.604 178.118 208.401 178.118ZM208.401 -192.912C106.768 -192.912 24.0877 -110.229 24.0877 -8.59897C24.0877 93.0308 106.771 175.714 208.401 175.714C310.031 175.714 392.714 93.0308 392.714 -8.59897C392.714 -110.229 310.031 -192.912 208.401 -192.912Z" fill="url(#paint6_linear_2_892)"/>
<path d="M208.401 171.505C184.088 171.505 160.5 166.743 138.297 157.352C116.848 148.282 97.5882 135.296 81.0488 118.757C64.5093 102.217 51.5236 82.9565 42.4533 61.5082C33.0622 39.302 28.3 15.7166 28.3 -8.59587C28.3 -32.9084 33.0622 -56.4971 42.4533 -78.6999C51.5236 -100.145 64.5093 -119.408 81.0488 -135.948C97.5882 -152.487 116.848 -165.473 138.297 -174.543C160.503 -183.935 184.088 -188.697 208.401 -188.697C232.713 -188.697 256.302 -183.935 278.505 -174.543C299.953 -165.473 319.213 -152.487 335.753 -135.948C352.292 -119.408 365.278 -100.148 374.348 -78.6999C383.739 -56.4937 388.502 -32.9084 388.502 -8.59587C388.502 15.7166 383.739 39.3054 374.348 61.5082C365.278 82.9565 352.292 102.217 335.753 118.757C319.213 135.296 299.953 148.282 278.505 157.352C256.299 166.743 232.713 171.505 208.401 171.505ZM208.401 -186.3C110.417 -186.3 30.6999 -106.583 30.6999 -8.59929C30.6999 89.3846 110.417 169.102 208.401 169.102C306.385 169.102 386.102 89.3846 386.102 -8.59929C386.102 -106.583 306.385 -186.3 208.401 -186.3Z" fill="url(#paint7_linear_2_892)"/>
<path d="M208.401 164.889C184.979 164.889 162.261 160.301 140.871 151.255C120.211 142.516 101.657 130.008 85.7256 114.076C69.7938 98.1444 57.2826 79.5909 48.5469 58.9311C39.5005 37.5407 34.9125 14.8225 34.9125 -8.59904C34.9125 -32.0205 39.5005 -54.7388 48.5469 -76.1292C57.286 -96.789 69.7938 -115.343 85.7256 -131.274C101.657 -147.206 120.211 -159.717 140.871 -168.453C162.261 -177.499 184.979 -182.087 208.401 -182.087C231.822 -182.087 254.541 -177.499 275.931 -168.453C296.591 -159.714 315.144 -147.206 331.076 -131.274C347.008 -115.343 359.519 -96.789 368.255 -76.1292C377.301 -54.7388 381.889 -32.0205 381.889 -8.59904C381.889 14.8225 377.301 37.5407 368.255 58.9311C359.516 79.5909 347.008 98.1444 331.076 114.076C315.144 130.008 296.591 142.519 275.931 151.255C254.541 160.301 231.822 164.889 208.401 164.889ZM208.401 -179.684C114.063 -179.684 37.3157 -102.934 37.3157 -8.59904C37.3157 85.7356 114.066 162.486 208.401 162.486C302.736 162.486 379.486 85.7356 379.486 -8.59904C379.486 -102.934 302.736 -179.684 208.401 -179.684Z" fill="url(#paint8_linear_2_892)"/>
<path d="M208.401 158.277C185.874 158.277 164.019 153.863 143.445 145.162C123.574 136.757 105.727 124.724 90.4026 109.4C75.0784 94.075 63.0451 76.2281 54.6405 56.3569C45.939 35.7824 41.525 13.9278 41.525 -8.59929C41.525 -31.1264 45.939 -52.981 54.6405 -73.5555C63.0451 -93.4267 75.0784 -111.274 90.4026 -126.598C105.727 -141.922 123.574 -153.955 143.445 -162.36C164.019 -171.061 185.874 -175.475 208.401 -175.475C230.928 -175.475 252.783 -171.061 273.357 -162.36C293.229 -153.955 311.075 -141.922 326.4 -126.598C341.724 -111.274 353.757 -93.4267 362.162 -73.5555C370.863 -52.981 375.277 -31.1264 375.277 -8.59929C375.277 13.9278 370.863 35.7824 362.162 56.3569C353.757 76.2281 341.724 94.075 326.4 109.4C311.075 124.724 293.229 136.757 273.357 145.162C252.783 153.863 230.928 158.277 208.401 158.277ZM208.401 -173.072C117.712 -173.072 43.9283 -99.2915 43.9283 -8.59929C43.9283 82.0929 117.709 155.874 208.401 155.874C299.093 155.874 372.874 82.0929 372.874 -8.59929C372.874 -99.2915 299.093 -173.072 208.401 -173.072Z" fill="url(#paint9_linear_2_892)"/>
<path d="M208.401 151.661C186.765 151.661 165.777 147.425 146.019 139.068C126.936 130.995 109.796 119.443 95.0793 104.723C80.3628 90.0062 68.8074 72.866 60.7339 53.7833C52.3772 34.0247 48.1407 13.0372 48.1407 -8.59892C48.1407 -30.235 52.3772 -51.2226 60.7339 -70.9812C68.8074 -90.0638 80.3594 -107.204 95.0793 -121.921C109.796 -136.637 126.936 -148.193 146.019 -156.266C165.777 -164.623 186.765 -168.859 208.401 -168.859C230.037 -168.859 251.025 -164.623 270.783 -156.266C289.866 -148.193 307.006 -136.641 321.723 -121.921C336.439 -107.204 347.995 -90.0638 356.068 -70.9812C364.425 -51.2226 368.661 -30.235 368.661 -8.59892C368.661 13.0372 364.425 34.0247 356.068 53.7833C347.998 72.866 336.443 90.0062 321.723 104.723C307.006 119.439 289.866 130.995 270.783 139.068C251.025 147.425 230.037 151.661 208.401 151.661ZM208.401 -166.456C121.358 -166.456 50.5406 -95.6418 50.5406 -8.59552C50.5406 78.4508 121.355 149.262 208.401 149.262C295.447 149.262 366.261 78.4474 366.261 -8.59552C366.261 -95.6384 295.447 -166.456 208.401 -166.456Z" fill="url(#paint10_linear_2_892)"/>
<path d="M208.401 145.049C187.659 145.049 167.539 140.987 148.596 132.975C130.298 125.236 113.868 114.158 99.7594 100.049C85.6505 85.94 74.5695 69.5064 66.8307 51.2123C58.8187 32.2696 54.7563 12.1458 54.7563 -8.59598C54.7563 -29.3377 58.8187 -49.4582 66.8307 -68.4009C74.5695 -86.6984 85.6471 -103.129 99.7594 -117.237C113.868 -131.346 130.302 -142.427 148.596 -150.166C167.539 -158.178 187.659 -162.24 208.401 -162.24C229.143 -162.24 249.263 -158.178 268.209 -150.166C286.507 -142.427 302.937 -131.35 317.046 -117.237C331.155 -103.129 342.236 -86.695 349.974 -68.4009C357.986 -49.4582 362.049 -29.3377 362.049 -8.59598C362.049 12.1458 357.986 32.2662 349.974 51.2123C342.236 69.5098 331.158 85.94 317.046 100.049C302.937 114.158 286.503 125.239 268.209 132.975C249.266 140.987 229.143 145.049 208.401 145.049ZM208.401 -159.844C125.004 -159.844 57.1562 -91.9965 57.1562 -8.5994C57.1562 74.7977 125.004 142.646 208.401 142.646C291.798 142.646 359.646 74.7977 359.646 -8.5994C359.646 -91.9965 291.798 -159.844 208.401 -159.844Z" fill="url(#paint11_linear_2_892)"/>
<path d="M208.401 138.433C188.554 138.433 169.297 134.545 151.17 126.878C133.661 119.473 117.938 108.87 104.433 95.3692C90.9317 81.868 80.3287 66.141 72.9243 48.6354C65.2571 30.5086 61.3689 11.2518 61.3689 -8.59552C61.3689 -28.4429 65.2571 -47.6996 72.9243 -65.8264C80.3287 -83.3354 90.9317 -99.0589 104.433 -112.564C117.934 -126.065 133.661 -136.668 151.17 -144.072C169.297 -151.739 188.554 -155.628 208.401 -155.628C228.248 -155.628 247.505 -151.739 265.632 -144.072C283.141 -136.668 298.864 -126.065 312.369 -112.564C325.87 -99.0624 336.473 -83.3354 343.878 -65.8264C351.545 -47.6996 355.433 -28.4429 355.433 -8.59552C355.433 11.2518 351.545 30.5086 343.878 48.6354C336.473 66.1444 325.87 81.868 312.369 95.3692C298.868 108.874 283.141 119.473 265.632 126.878C247.505 134.545 228.248 138.433 208.401 138.433ZM208.401 -153.228C128.65 -153.228 63.7721 -88.3467 63.7721 -8.59552C63.7721 71.1557 128.653 136.033 208.401 136.033C288.149 136.033 353.033 71.1523 353.033 -8.59552C353.033 -88.3433 288.152 -153.228 208.401 -153.228Z" fill="url(#paint12_linear_2_892)"/>
<path d="M208.401 131.821C189.445 131.821 171.055 128.11 153.744 120.784C137.024 113.711 122.007 103.585 109.11 90.6919C96.2126 77.7949 86.091 62.7813 79.0177 46.0576C71.6953 28.7466 67.9812 10.3569 67.9812 -8.59943C67.9812 -27.5558 71.6953 -45.9455 79.0177 -63.2564C86.091 -79.9768 96.216 -94.9937 109.11 -107.891C122.003 -120.784 137.02 -130.909 153.744 -137.983C171.055 -145.305 189.445 -149.019 208.401 -149.019C227.357 -149.019 245.747 -145.305 263.058 -137.983C279.778 -130.909 294.795 -120.784 307.692 -107.891C320.586 -94.9937 330.711 -79.9768 337.784 -63.2564C345.107 -45.9455 348.821 -27.5558 348.821 -8.59943C348.821 10.3569 345.107 28.7466 337.784 46.0576C330.711 62.7779 320.586 77.7949 307.692 90.6919C294.795 103.585 279.782 113.711 263.058 120.784C245.747 128.107 227.357 131.821 208.401 131.821ZM208.401 -146.616C132.299 -146.616 70.3845 -84.7014 70.3845 -8.59943C70.3845 67.5025 132.299 129.417 208.401 129.417C284.503 129.417 346.417 67.5025 346.417 -8.59943C346.417 -84.7014 284.503 -146.616 208.401 -146.616Z" fill="url(#paint13_linear_2_892)"/>
<path d="M208.401 125.205C190.339 125.205 172.816 121.668 156.318 114.691C140.383 107.952 126.076 98.3049 113.786 86.0155C101.497 73.7261 91.8498 59.4193 85.1112 43.484C78.1335 26.989 74.5969 9.46294 74.5969 -8.59903C74.5969 -26.661 78.1335 -44.187 85.1112 -60.6821C91.8498 -76.6139 101.497 -90.9242 113.786 -103.214C126.076 -115.503 140.383 -125.15 156.318 -131.889C172.816 -138.866 190.339 -142.403 208.401 -142.403C226.463 -142.403 243.989 -138.866 260.484 -131.889C276.416 -125.15 290.726 -115.503 303.015 -103.214C315.305 -90.9242 324.952 -76.6173 331.691 -60.6821C338.668 -44.187 342.205 -26.661 342.205 -8.59903C342.205 9.46294 338.668 26.989 331.691 43.484C324.952 59.4193 315.305 73.7261 303.015 86.0155C290.726 98.3049 276.419 107.952 260.484 114.691C243.985 121.668 226.463 125.205 208.401 125.205ZM208.401 -140.003C135.945 -140.003 76.9968 -81.0551 76.9968 -8.59903C76.9968 63.8571 135.945 122.805 208.401 122.805C280.857 122.805 339.805 63.8571 339.805 -8.59903C339.805 -81.0551 280.857 -140.003 208.401 -140.003Z" fill="url(#paint14_linear_2_892)"/>
<path d="M208.401 118.593C191.23 118.593 174.575 115.23 158.892 108.597C143.745 102.189 130.145 93.0201 118.463 81.3383C106.782 69.6566 97.6124 56.0564 91.2048 40.9097C84.572 25.2271 81.2095 8.57158 81.2095 -8.59941C81.2095 -25.7704 84.572 -42.4259 91.2048 -58.1085C97.6124 -73.2552 106.782 -86.8554 118.463 -98.5371C130.145 -110.219 143.745 -119.388 158.892 -125.796C174.575 -132.429 191.23 -135.791 208.401 -135.791C225.572 -135.791 242.228 -132.429 257.91 -125.796C273.057 -119.388 286.657 -110.219 298.339 -98.5371C310.021 -86.8554 319.19 -73.2552 325.597 -58.1085C332.23 -42.4259 335.593 -25.7704 335.593 -8.59941C335.593 8.57158 332.23 25.2271 325.597 40.9097C319.19 56.0564 310.021 69.6566 298.339 81.3383C286.657 93.0201 273.057 102.189 257.91 108.597C242.228 115.23 225.572 118.593 208.401 118.593ZM208.401 -133.388C139.591 -133.388 83.6127 -77.4062 83.6127 -8.59941C83.6127 60.2074 139.594 116.189 208.401 116.189C277.208 116.189 333.189 60.2074 333.189 -8.59941C333.189 -77.4062 277.208 -133.388 208.401 -133.388Z" fill="url(#paint15_linear_2_892)"/>
<path d="M208.401 111.977C192.124 111.977 176.333 108.788 161.466 102.5C147.108 96.4273 134.214 87.7326 123.14 76.6619C112.066 65.5878 103.371 52.6943 97.2983 38.3362C91.0102 23.4694 87.8218 7.6776 87.8218 -8.599C87.8218 -24.8756 91.0102 -40.6675 97.2983 -55.5342C103.371 -69.8923 112.066 -82.7859 123.14 -93.8599C134.214 -104.934 147.108 -113.625 161.466 -119.698C176.333 -125.986 192.124 -129.175 208.401 -129.175C224.678 -129.175 240.469 -125.986 255.336 -119.698C269.694 -113.625 282.588 -104.931 293.662 -93.8599C304.736 -82.7859 313.427 -69.8923 319.5 -55.5342C325.788 -40.6675 328.977 -24.8756 328.977 -8.599C328.977 7.6776 325.788 23.4694 319.5 38.3362C313.427 52.6943 304.733 65.5878 293.662 76.6619C282.588 87.736 269.694 96.4273 255.336 102.5C240.469 108.788 224.678 111.977 208.401 111.977ZM208.401 -126.772C143.24 -126.772 90.225 -73.76 90.225 -8.5956C90.225 56.5688 143.237 109.58 208.401 109.58C273.565 109.58 326.577 56.5688 326.577 -8.5956C326.577 -73.76 273.565 -126.772 208.401 -126.772Z" fill="url(#paint16_linear_2_892)"/>
<path d="M208.401 105.364C193.015 105.364 178.09 102.35 164.043 96.4065C150.474 90.668 138.287 82.4512 127.82 71.9848C117.354 61.5183 109.137 49.3313 103.398 35.7618C97.4551 21.711 94.4408 6.78621 94.4408 -8.59599C94.4408 -23.9782 97.4551 -38.9064 103.398 -52.9538C109.137 -66.5233 117.354 -78.7137 127.82 -89.1767C138.287 -99.6432 150.474 -107.86 164.043 -113.598C178.094 -119.542 193.019 -122.556 208.401 -122.556C223.783 -122.556 238.711 -119.542 252.759 -113.598C266.328 -107.86 278.519 -99.6398 288.982 -89.1767C299.448 -78.7103 307.665 -66.5233 313.403 -52.9538C319.347 -38.9029 322.361 -23.9782 322.361 -8.59599C322.361 6.78621 319.347 21.7144 313.403 35.7618C307.665 49.3313 299.445 61.5217 288.982 71.9848C278.515 82.4512 266.328 90.668 252.759 96.4065C238.708 102.35 223.783 105.364 208.401 105.364ZM208.401 -120.16C146.886 -120.16 96.8406 -70.1145 96.8406 -8.5994C96.8406 52.9157 146.886 102.961 208.401 102.961C269.916 102.961 319.961 52.9157 319.961 -8.5994C319.961 -70.1145 269.916 -120.16 208.401 -120.16Z" fill="url(#paint17_linear_2_892)"/>
<g clip-path="url(#clip2_2_892)">
<path d="M109.375 29.5168L114.688 34.8293L109.375 40.1418" stroke="#46ECE7" stroke-linecap="round" stroke-linejoin="round"/>
</g>
<rect x="123.38" y="20.3802" width="170.347" height="28.8982" rx="7.22455" fill="#26294E"/>
<rect x="123.38" y="20.3802" width="170.347" height="28.8982" rx="7.22455" stroke="#2D3555" stroke-width="0.760479"/>
<rect x="134" y="30" width="146" height="9" rx="2" fill="#404372"/>
<g clip-path="url(#clip3_2_892)">
<path d="M109.375 70.1755L114.688 75.488L109.375 80.8005" stroke="#46ECE7" stroke-linecap="round" stroke-linejoin="round"/>
</g>
<rect x="123.38" y="61.0389" width="170.347" height="28.8982" rx="7.22455" fill="#46ECE7"/>
<rect x="123.38" y="61.0389" width="170.347" height="28.8982" rx="7.22455" stroke="#2D3555" stroke-width="0.760479"/>
<rect x="134" y="70.6587" width="124" height="9" rx="2" fill="#3EAAA7"/>
<g clip-path="url(#clip4_2_892)">
<path d="M109.375 110.834L114.688 116.147L109.375 121.459" stroke="#46ECE7" stroke-linecap="round" stroke-linejoin="round"/>
</g>
<rect x="123.38" y="101.698" width="170.347" height="28.8982" rx="7.22455" fill="#26294E"/>
<rect x="123.38" y="101.698" width="170.347" height="28.8982" rx="7.22455" stroke="#2D3555" stroke-width="0.760479"/>
<rect x="134" y="111.317" width="146" height="9" rx="2" fill="#404372"/>
<g clip-path="url(#clip5_2_892)">
<path d="M109.375 151.493L114.688 156.805L109.375 162.118" stroke="#46ECE7" stroke-linecap="round" stroke-linejoin="round"/>
</g>
<rect x="123.38" y="142.356" width="170.347" height="28.8982" rx="7.22455" fill="#26294E"/>
<rect x="123.38" y="142.356" width="170.347" height="28.8982" rx="7.22455" stroke="#2D3555" stroke-width="0.760479"/>
<rect x="134" y="151.976" width="109" height="9" rx="2" fill="#404372"/>
</g>
</g>
<defs>
<linearGradient id="paint0_linear_2_892" x1="208.401" y1="-235" x2="208.401" y2="217.802" gradientUnits="userSpaceOnUse">
<stop stop-color="#46ECE7"/>
<stop offset="0.305" stop-color="#264EDC"/>
<stop offset="0.965" stop-color="#1B1D3D"/>
</linearGradient>
<linearGradient id="paint1_linear_2_892" x1="208.401" y1="-228.391" x2="208.401" y2="211.186" gradientUnits="userSpaceOnUse">
<stop stop-color="#46ECE7"/>
<stop offset="0.305" stop-color="#264EDC"/>
<stop offset="0.965" stop-color="#1B1D3D"/>
</linearGradient>
<linearGradient id="paint2_linear_2_892" x1="208.401" y1="-221.772" x2="208.401" y2="204.574" gradientUnits="userSpaceOnUse">
<stop stop-color="#46ECE7"/>
<stop offset="0.305" stop-color="#264EDC"/>
<stop offset="0.965" stop-color="#1B1D3D"/>
</linearGradient>
<linearGradient id="paint3_linear_2_892" x1="208.401" y1="-215.153" x2="208.401" y2="197.961" gradientUnits="userSpaceOnUse">
<stop stop-color="#46ECE7"/>
<stop offset="0.305" stop-color="#264EDC"/>
<stop offset="0.965" stop-color="#1B1D3D"/>
</linearGradient>
<linearGradient id="paint4_linear_2_892" x1="208.403" y1="-208.54" x2="208.403" y2="191.346" gradientUnits="userSpaceOnUse">
<stop stop-color="#46ECE7"/>
<stop offset="0.305" stop-color="#264EDC"/>
<stop offset="0.965" stop-color="#1B1D3D"/>
</linearGradient>
<linearGradient id="paint5_linear_2_892" x1="208.401" y1="-201.935" x2="208.401" y2="184.73" gradientUnits="userSpaceOnUse">
<stop stop-color="#46ECE7"/>
<stop offset="0.305" stop-color="#264EDC"/>
<stop offset="0.965" stop-color="#1B1D3D"/>
</linearGradient>
<linearGradient id="paint6_linear_2_892" x1="208.401" y1="-195.316" x2="208.401" y2="178.118" gradientUnits="userSpaceOnUse">
<stop stop-color="#46ECE7"/>
<stop offset="0.305" stop-color="#264EDC"/>
<stop offset="0.965" stop-color="#1B1D3D"/>
</linearGradient>
<linearGradient id="paint7_linear_2_892" x1="208.401" y1="-188.697" x2="208.401" y2="171.505" gradientUnits="userSpaceOnUse">
<stop stop-color="#46ECE7"/>
<stop offset="0.305" stop-color="#264EDC"/>
<stop offset="0.965" stop-color="#1B1D3D"/>
</linearGradient>
<linearGradient id="paint8_linear_2_892" x1="208.401" y1="-182.087" x2="208.401" y2="164.889" gradientUnits="userSpaceOnUse">
<stop stop-color="#46ECE7"/>
<stop offset="0.305" stop-color="#264EDC"/>
<stop offset="0.965" stop-color="#1B1D3D"/>
</linearGradient>
<linearGradient id="paint9_linear_2_892" x1="208.401" y1="-175.475" x2="208.401" y2="158.277" gradientUnits="userSpaceOnUse">
<stop stop-color="#46ECE7"/>
<stop offset="0.305" stop-color="#264EDC"/>
<stop offset="0.965" stop-color="#1B1D3D"/>
</linearGradient>
<linearGradient id="paint10_linear_2_892" x1="208.401" y1="-168.859" x2="208.401" y2="151.661" gradientUnits="userSpaceOnUse">
<stop stop-color="#46ECE7"/>
<stop offset="0.305" stop-color="#264EDC"/>
<stop offset="0.965" stop-color="#1B1D3D"/>
</linearGradient>
<linearGradient id="paint11_linear_2_892" x1="208.403" y1="-162.24" x2="208.403" y2="145.049" gradientUnits="userSpaceOnUse">
<stop stop-color="#46ECE7"/>
<stop offset="0.305" stop-color="#264EDC"/>
<stop offset="0.965" stop-color="#1B1D3D"/>
</linearGradient>
<linearGradient id="paint12_linear_2_892" x1="208.401" y1="-155.628" x2="208.401" y2="138.433" gradientUnits="userSpaceOnUse">
<stop stop-color="#46ECE7"/>
<stop offset="0.305" stop-color="#264EDC"/>
<stop offset="0.965" stop-color="#1B1D3D"/>
</linearGradient>
<linearGradient id="paint13_linear_2_892" x1="208.401" y1="-149.019" x2="208.401" y2="131.821" gradientUnits="userSpaceOnUse">
<stop stop-color="#46ECE7"/>
<stop offset="0.305" stop-color="#264EDC"/>
<stop offset="0.965" stop-color="#1B1D3D"/>
</linearGradient>
<linearGradient id="paint14_linear_2_892" x1="208.401" y1="-142.403" x2="208.401" y2="125.205" gradientUnits="userSpaceOnUse">
<stop stop-color="#46ECE7"/>
<stop offset="0.305" stop-color="#264EDC"/>
<stop offset="0.965" stop-color="#1B1D3D"/>
</linearGradient>
<linearGradient id="paint15_linear_2_892" x1="208.401" y1="-135.791" x2="208.401" y2="118.593" gradientUnits="userSpaceOnUse">
<stop stop-color="#46ECE7"/>
<stop offset="0.305" stop-color="#264EDC"/>
<stop offset="0.965" stop-color="#1B1D3D"/>
</linearGradient>
<linearGradient id="paint16_linear_2_892" x1="208.399" y1="-129.175" x2="208.399" y2="111.977" gradientUnits="userSpaceOnUse">
<stop stop-color="#46ECE7"/>
<stop offset="0.305" stop-color="#264EDC"/>
<stop offset="0.965" stop-color="#1B1D3D"/>
</linearGradient>
<linearGradient id="paint17_linear_2_892" x1="208.401" y1="-122.556" x2="208.401" y2="105.364" gradientUnits="userSpaceOnUse">
<stop stop-color="#46ECE7"/>
<stop offset="0.305" stop-color="#264EDC"/>
<stop offset="0.965" stop-color="#1B1D3D"/>
</linearGradient>
<clipPath id="clip0_2_892">
<rect width="418" height="159" fill="white"/>
</clipPath>
<clipPath id="clip1_2_892">
<rect width="453" height="453" fill="white" transform="translate(-18 -235)"/>
</clipPath>
<clipPath id="clip2_2_892">
<rect width="17" height="17" fill="white" transform="translate(103 26.3293)"/>
</clipPath>
<clipPath id="clip3_2_892">
<rect width="17" height="17" fill="white" transform="translate(103 66.988)"/>
</clipPath>
<clipPath id="clip4_2_892">
<rect width="17" height="17" fill="white" transform="translate(103 107.647)"/>
</clipPath>
<clipPath id="clip5_2_892">
<rect width="17" height="17" fill="white" transform="translate(103 148.305)"/>
</clipPath>
</defs>
</svg>
