<svg width="418" height="159" viewBox="0 0 418 159" fill="none" xmlns="http://www.w3.org/2000/svg">
<g clip-path="url(#clip0_2_871)">
<rect width="418" height="159" fill="#1B1D3D"/>
<circle cx="209" cy="80" r="58" fill="#0F112B"/>
<circle cx="209" cy="80" r="85.5" stroke="#545AA2" stroke-opacity="0.7"/>
<circle cx="208.5" cy="79.5" r="118" stroke="#545AA2" stroke-opacity="0.5"/>
<circle cx="208.5" cy="79.5" r="156" stroke="#545AA2" stroke-opacity="0.2"/>
<path opacity="0.2" d="M199.938 79.9999C199.938 76.2568 202.148 73.0286 205.338 71.5483V42C186.048 43.9669 171 60.2294 171 79.9999C171 99.7705 186.048 116.033 205.338 118V88.4516C202.148 86.9673 199.938 83.7432 199.938 79.9999Z" fill="#46ECE7"/>
<path opacity="0.2" d="M198.589 51.4412C186.991 55.7644 178.733 66.921 178.733 80.0041C178.733 93.0871 186.991 104.24 198.589 108.567V51.4412Z" fill="#46ECE7"/>
<path opacity="0.2" d="M219.972 51.4412V108.563C231.569 104.24 239.827 93.083 239.827 80.0001C239.827 66.9169 231.569 55.7643 219.972 51.4371V51.4412Z" fill="#46ECE7"/>
<path opacity="0.5" d="M213.218 57.4394V71.5484C216.408 73.0327 218.619 76.2568 218.619 80.0001C218.619 83.7433 216.408 86.9674 213.218 88.4517V102.561C224.015 100.695 232.232 91.3068 232.232 79.996C232.232 68.6852 224.015 59.2968 213.218 57.4312V57.4394Z" fill="#46ECE7"/>
<path opacity="0.5" d="M199.938 79.9999C199.938 76.2567 202.148 73.0285 205.338 71.5483V57.4392C194.541 59.3047 186.324 68.6932 186.324 80.004C186.324 91.3147 194.537 100.703 205.338 102.569V88.4597C202.148 86.9754 199.938 83.7513 199.938 80.008V79.9999Z" fill="#46ECE7"/>
<path opacity="0.2" d="M213.218 42V71.5483C216.408 73.0327 218.619 76.2568 218.619 79.9999C218.619 83.7432 216.408 86.9673 213.218 88.4516V118C232.508 116.033 247.556 99.7705 247.556 79.9999C247.556 60.2294 232.508 43.9669 213.218 42Z" fill="#46ECE7"/>
<path d="M209.28 64.3416C200.616 64.3416 193.59 71.3536 193.59 79.9999C193.59 88.6463 200.616 95.6582 209.28 95.6582C217.944 95.6582 224.97 88.6463 224.97 79.9999C224.97 71.3536 217.944 64.3416 209.28 64.3416ZM209.28 89.3235C204.119 89.3235 199.937 85.1503 199.937 79.9999C199.937 74.8494 204.119 70.6763 209.28 70.6763C214.441 70.6763 218.622 74.8494 218.622 79.9999C218.622 85.1503 214.441 89.3235 209.28 89.3235Z" fill="#46ECE7"/>
<circle cx="271.5" cy="21.5" r="7.5" fill="#46ECE7"/>
<circle cx="149.5" cy="140.5" r="7.5" fill="#46ECE7"/>
<circle cx="326" cy="89" r="5" fill="#46ECE7"/>
<circle cx="90" cy="80" r="5" fill="#46ECE7"/>
<circle cx="343.5" cy="157.5" r="3.5" fill="#46ECE7"/>
<circle cx="364.5" cy="79.5" r="3.5" fill="#46ECE7"/>
<circle cx="68.5" cy="10.5" r="3.5" fill="#46ECE7"/>
<circle cx="55.5" cy="112.5" r="3.5" fill="#46ECE7"/>
</g>
<defs>
<clipPath id="clip0_2_871">
<rect width="418" height="159" fill="white"/>
</clipPath>
</defs>
</svg>
